<svg xmlns="http://www.w3.org/2000/svg" viewBox="0 0 24 24" width="512" height="512">
    <rect width="24" height="24" fill="#3f9870"/>
    <path fill="white" d="M17.61,3.42C15.8,2.69,13.84,3.33,13,4.8C12.16,3.33,10.2,2.69,8.39,3.42C6.29,4.26,5.1,6.4,5.34,8.57C5.53,10.31,6.56,12.2,8.47,14.5C9.92,16.21,11,17.33,11.23,17.75C11.43,18.04,11.5,18.14,11.5,18.14L12,19L12.5,18.14C12.5,18.14,12.57,18.04,12.77,17.75C13,17.33,14.08,16.21,15.53,14.5C17.44,12.2,18.47,10.31,18.66,8.57C18.9,6.4,17.71,4.26,17.61,3.42Z" />
</svg>
